<svg width="124" height="24" viewBox="0 0 124 24" fill="none" xmlns="http://www.w3.org/2000/svg">
<path d="M22.5918 15.692C22.5918 16.388 22.4838 17 22.2678 17.528C22.0758 18.056 21.8718 18.512 21.6558 18.896C21.4638 19.256 21.3678 19.568 21.3678 19.832C21.3678 20.12 21.5238 20.456 21.8358 20.84C22.1718 21.224 22.5438 21.596 22.9518 21.956C23.3838 22.316 23.7438 22.604 24.0318 22.82L23.4558 23.612C23.1678 23.42 22.7238 23.108 22.1238 22.676C21.5238 22.244 20.8998 21.752 20.2518 21.2C19.6278 20.648 19.0878 20.108 18.6318 19.58C18.1758 19.028 17.9478 18.572 17.9478 18.212C17.9478 17.876 18.0438 17.516 18.2358 17.132C18.4518 16.748 18.6558 16.304 18.8478 15.8C19.0638 15.272 19.1718 14.648 19.1718 13.928V9.68C18.1878 9.272 17.1918 8.972 16.1838 8.78C15.1998 8.588 14.2638 8.492 13.3758 8.492C12.0318 8.492 10.8078 8.684 9.70378 9.068C8.62378 9.428 7.77178 9.908 7.14778 10.508C6.52378 11.108 6.21178 11.744 6.21178 12.416C6.21178 12.896 6.36778 13.136 6.67978 13.136C6.79978 13.136 7.01578 13.028 7.32778 12.812C7.66378 12.596 8.08378 12.356 8.58778 12.092C9.09178 11.804 9.63178 11.552 10.2078 11.336C10.8078 11.12 11.4078 11.012 12.0078 11.012C12.4638 11.012 12.9558 11.18 13.4838 11.516C14.0118 11.852 14.5158 12.296 14.9958 12.848C15.4758 13.376 15.8718 13.952 16.1838 14.576C16.4958 15.176 16.6518 15.752 16.6518 16.304C16.6518 16.808 16.4958 17.36 16.1838 17.96C15.8958 18.56 15.4758 19.136 14.9238 19.688C14.3718 20.24 13.7118 20.696 12.9438 21.056C12.1998 21.392 11.3718 21.56 10.4598 21.56C9.23578 21.56 8.05978 21.236 6.93178 20.588C5.80378 19.94 4.77178 19.136 3.83578 18.176C2.89978 17.192 2.11978 16.22 1.49578 15.26L2.25178 14.72C3.37978 16.328 4.43578 17.396 5.41978 17.924C6.42778 18.428 7.49578 18.68 8.62378 18.68C9.29578 18.68 9.91978 18.524 10.4958 18.212C11.0958 17.9 11.6118 17.516 12.0438 17.06C12.4758 16.604 12.8118 16.16 13.0518 15.728C13.3158 15.296 13.4478 14.972 13.4478 14.756C13.4478 14.372 13.3038 14.18 13.0158 14.18C12.5838 14.18 12.1158 14.288 11.6118 14.504C11.1318 14.72 10.6518 14.96 10.1718 15.224C9.71578 15.488 9.30778 15.728 8.94778 15.944C8.61178 16.16 8.38378 16.268 8.26378 16.268C8.09578 16.268 7.72378 16.076 7.14778 15.692C6.59578 15.308 5.99578 14.804 5.34778 14.18C4.72378 13.532 4.17178 12.848 3.69178 12.128C3.23578 11.384 3.00778 10.676 3.00778 10.004C3.00778 9.092 3.36778 8.312 4.08778 7.664C4.80778 6.992 5.75578 6.476 6.93178 6.116C8.13178 5.756 9.42778 5.576 10.8198 5.576C12.0918 5.576 13.4718 5.696 14.9598 5.936C16.4478 6.176 17.8518 6.644 19.1718 7.34V5.108C19.1718 4.004 19.4598 3.164 20.0358 2.588H7.43578C6.93178 2.588 6.43978 2.78 5.95978 3.164C5.47978 3.524 5.10778 3.908 4.84378 4.316H4.05178L0.847781 0.86L1.20778 -0.00400209H21.5118L23.8878 2.588C23.5278 2.828 23.2158 3.188 22.9518 3.668C22.7118 4.148 22.5918 4.712 22.5918 5.36V15.692ZM33.2669 6.044C33.8429 6.044 34.4309 6.092 35.0309 6.188C35.6549 6.26 36.2669 6.356 36.8669 6.476V5.108C36.8669 4.004 37.1549 3.164 37.7309 2.588H30.9989C30.4949 2.588 30.0029 2.78 29.5229 3.164C29.0429 3.524 28.6709 3.908 28.4069 4.316H27.6149L24.4109 0.86L24.7709 -0.00400209H39.2069L41.5829 2.588C41.2229 2.828 40.9109 3.188 40.6469 3.668C40.4069 4.148 40.2869 4.712 40.2869 5.36V8.564L39.5309 9.248C38.2109 8.96 36.9749 8.816 35.8229 8.816C34.5989 8.816 33.5069 9.02 32.5469 9.428C31.6109 9.812 30.8669 10.328 30.3149 10.976C29.7629 11.624 29.4869 12.32 29.4869 13.064C29.4869 13.52 29.6069 13.748 29.8469 13.748C30.0869 13.748 30.5189 13.58 31.1429 13.244C31.7909 12.884 32.5709 12.536 33.4829 12.2C34.4189 11.84 35.4509 11.66 36.5789 11.66C36.9869 11.66 37.4669 11.816 38.0189 12.128C38.5949 12.44 39.1469 12.86 39.6749 13.388C40.2029 13.892 40.6349 14.456 40.9709 15.08C41.3309 15.68 41.5109 16.292 41.5109 16.916C41.5109 17.78 41.1989 18.656 40.5749 19.544C39.9749 20.432 39.1349 21.176 38.0549 21.776C36.9749 22.352 35.7389 22.64 34.3469 22.64C33.0749 22.64 31.8269 22.328 30.6029 21.704C29.3789 21.08 28.2629 20.324 27.2549 19.436C26.2709 18.524 25.4429 17.648 24.7709 16.808L25.5629 16.124C26.7629 17.588 27.9149 18.548 29.0189 19.004C30.1229 19.46 31.2869 19.688 32.5109 19.688C33.2789 19.688 34.0109 19.532 34.7069 19.22C35.4029 18.884 36.0269 18.476 36.5789 17.996C37.1309 17.516 37.5629 17.024 37.8749 16.52C38.2109 16.016 38.3789 15.584 38.3789 15.224C38.3789 14.936 38.2829 14.792 38.0909 14.792C37.5149 14.792 36.8909 14.9 36.2189 15.116C35.5709 15.332 34.9229 15.584 34.2749 15.872C33.6269 16.136 33.0509 16.376 32.5469 16.592C32.0429 16.808 31.6709 16.916 31.4309 16.916C31.1669 16.916 30.7469 16.772 30.1709 16.484C29.5949 16.172 28.9949 15.752 28.3709 15.224C27.7709 14.696 27.2549 14.108 26.8229 13.46C26.3909 12.788 26.1749 12.092 26.1749 11.372C26.1749 10.172 26.4869 9.188 27.1109 8.42C27.7589 7.628 28.6229 7.04 29.7029 6.656C30.7829 6.248 31.9709 6.044 33.2669 6.044ZM63.1101 15.692C63.1101 16.46 62.9781 17.132 62.7141 17.708C62.4501 18.284 62.1861 18.776 61.9221 19.184C61.6581 19.568 61.5261 19.904 61.5261 20.192C61.5261 20.456 61.6821 20.756 61.9941 21.092C62.3301 21.428 62.7021 21.752 63.1101 22.064C63.5421 22.376 63.9021 22.628 64.1901 22.82L63.6141 23.612C63.3261 23.444 62.8821 23.156 62.2821 22.748C61.6821 22.34 61.0581 21.884 60.4101 21.38C59.7861 20.852 59.2461 20.336 58.7901 19.832C58.3341 19.328 58.1061 18.908 58.1061 18.572C58.1061 18.212 58.2381 17.828 58.5021 17.42C58.7661 16.988 59.0301 16.496 59.2941 15.944C59.5581 15.368 59.6901 14.696 59.6901 13.928V5.108C59.6901 4.004 59.9781 3.164 60.5541 2.588H57.2061C56.8461 2.828 56.5341 3.188 56.2701 3.668C56.0301 4.148 55.9101 4.712 55.9101 5.36V14.252C55.9101 15.212 55.6581 16.076 55.1541 16.844C54.6501 17.588 54.0261 18.188 53.2821 18.644C52.5381 19.076 51.7821 19.292 51.0141 19.292C50.4141 19.292 49.7181 19.124 48.9261 18.788C48.1341 18.452 47.3541 18.02 46.5861 17.492C45.8421 16.94 45.2181 16.352 44.7141 15.728C44.2341 15.104 43.9941 14.504 43.9941 13.928C43.9941 13.472 44.1381 12.848 44.4261 12.056C44.7141 11.24 44.8581 10.316 44.8581 9.284V5.108C44.8581 4.724 44.8941 4.352 44.9661 3.992L42.0861 0.86L42.4461 -0.00400209H62.0301L64.4061 2.588C64.0461 2.828 63.7341 3.188 63.4701 3.668C63.2301 4.148 63.1101 4.712 63.1101 5.36V15.692ZM52.4901 5.108C52.4901 4.004 52.7781 3.164 53.3541 2.588H49.5741C49.2141 2.828 48.9021 3.188 48.6381 3.668C48.3981 4.148 48.2781 4.712 48.2781 5.36V11.156C48.2781 11.876 48.1941 12.536 48.0261 13.136C47.8581 13.712 47.6901 14.228 47.5221 14.684C47.3541 15.116 47.2701 15.488 47.2701 15.8C47.2701 16.04 47.4021 16.244 47.6661 16.412C47.9301 16.556 48.2661 16.628 48.6741 16.628C49.2501 16.628 49.8261 16.472 50.4021 16.16C51.0021 15.848 51.4941 15.392 51.8781 14.792C52.2861 14.168 52.4901 13.4 52.4901 12.488V5.108ZM66.4941 12.956C66.4941 12.38 66.7701 11.816 67.3221 11.264C67.8981 10.712 68.7021 10.184 69.7341 9.68C68.9421 9.08 68.2701 8.42 67.7181 7.7C67.1901 6.98 66.9261 6.212 66.9261 5.396C66.9261 5.132 66.9501 4.868 66.9981 4.604C67.0701 4.316 67.1541 4.04 67.2501 3.776L64.5861 0.86L64.9461 -0.00400209H80.3181L82.6941 2.588C82.3341 2.828 82.0221 3.188 81.7581 3.668C81.5181 4.148 81.3981 4.712 81.3981 5.36V15.692C81.3981 16.46 81.2661 17.132 81.0021 17.708C80.7381 18.284 80.4741 18.776 80.2101 19.184C79.9461 19.568 79.8141 19.904 79.8141 20.192C79.8141 20.456 79.9701 20.756 80.2821 21.092C80.6181 21.428 80.9901 21.752 81.3981 22.064C81.8301 22.376 82.1901 22.628 82.4781 22.82L81.9021 23.612C81.6141 23.42 81.1581 23.12 80.5341 22.712C79.9341 22.304 79.3101 21.836 78.6621 21.308C78.0141 20.78 77.4741 20.276 77.0421 19.796C76.2501 20.156 75.4701 20.336 74.7021 20.336C74.3661 20.336 73.8741 20.216 73.2261 19.976C72.5781 19.712 71.8701 19.352 71.1021 18.896C70.3341 18.44 69.5901 17.9 68.8701 17.276C68.1741 16.652 67.5981 15.98 67.1421 15.26C66.7101 14.516 66.4941 13.748 66.4941 12.956ZM77.9781 5.108C77.9781 4.004 78.2661 3.164 78.8421 2.588H72.5061C71.6421 3.548 71.0661 4.508 70.7781 5.468C70.5141 6.428 70.3821 7.364 70.3821 8.276C70.3821 8.66 70.4901 8.996 70.7061 9.284C71.1861 9.092 71.7141 8.9 72.2901 8.708C72.8661 8.492 73.4901 8.3 74.1621 8.132L76.3221 11.048C71.9781 12.536 69.8061 14.072 69.8061 15.656C69.8061 16.184 69.9621 16.652 70.2741 17.06C70.6101 17.468 71.0181 17.672 71.4981 17.672C72.1461 17.672 72.8661 17.528 73.6581 17.24C74.4741 16.928 75.2661 16.484 76.0341 15.908C76.8021 15.332 77.4501 14.66 77.9781 13.892V5.108ZM92.0833 6.044C92.6593 6.044 93.2473 6.092 93.8473 6.188C94.4713 6.26 95.0833 6.356 95.6833 6.476V5.108C95.6833 4.004 95.9713 3.164 96.5473 2.588H89.8153C89.3113 2.588 88.8193 2.78 88.3393 3.164C87.8593 3.524 87.4873 3.908 87.2233 4.316H86.4313L83.2273 0.86L83.5873 -0.00400209H98.0233L100.399 2.588C100.039 2.828 99.7273 3.188 99.4633 3.668C99.2233 4.148 99.1033 4.712 99.1033 5.36V8.564L98.3473 9.248C97.0273 8.96 95.7913 8.816 94.6393 8.816C93.4153 8.816 92.3233 9.02 91.3633 9.428C90.4273 9.812 89.6833 10.328 89.1313 10.976C88.5793 11.624 88.3033 12.32 88.3033 13.064C88.3033 13.52 88.4233 13.748 88.6633 13.748C88.9033 13.748 89.3353 13.58 89.9593 13.244C90.6073 12.884 91.3873 12.536 92.2993 12.2C93.2353 11.84 94.2673 11.66 95.3953 11.66C95.8033 11.66 96.2833 11.816 96.8353 12.128C97.4113 12.44 97.9633 12.86 98.4913 13.388C99.0193 13.892 99.4513 14.456 99.7873 15.08C100.147 15.68 100.327 16.292 100.327 16.916C100.327 17.78 100.015 18.656 99.3913 19.544C98.7913 20.432 97.9513 21.176 96.8713 21.776C95.7913 22.352 94.5553 22.64 93.1633 22.64C91.8913 22.64 90.6433 22.328 89.4193 21.704C88.1953 21.08 87.0793 20.324 86.0713 19.436C85.0873 18.524 84.2593 17.648 83.5873 16.808L84.3793 16.124C85.5793 17.588 86.7313 18.548 87.8353 19.004C88.9393 19.46 90.1033 19.688 91.3273 19.688C92.0953 19.688 92.8273 19.532 93.5233 19.22C94.2193 18.884 94.8433 18.476 95.3953 17.996C95.9473 17.516 96.3793 17.024 96.6913 16.52C97.0273 16.016 97.1953 15.584 97.1953 15.224C97.1953 14.936 97.0993 14.792 96.9073 14.792C96.3313 14.792 95.7073 14.9 95.0353 15.116C94.3873 15.332 93.7393 15.584 93.0913 15.872C92.4433 16.136 91.8673 16.376 91.3633 16.592C90.8593 16.808 90.4873 16.916 90.2473 16.916C89.9833 16.916 89.5633 16.772 88.9873 16.484C88.4113 16.172 87.8113 15.752 87.1873 15.224C86.5873 14.696 86.0713 14.108 85.6393 13.46C85.2073 12.788 84.9913 12.092 84.9913 11.372C84.9913 10.172 85.3033 9.188 85.9273 8.42C86.5753 7.628 87.4393 7.04 88.5193 6.656C89.5993 6.248 90.7873 6.044 92.0833 6.044ZM121.926 15.692C121.926 16.46 121.794 17.132 121.53 17.708C121.266 18.284 121.002 18.776 120.738 19.184C120.474 19.568 120.342 19.904 120.342 20.192C120.342 20.456 120.498 20.756 120.81 21.092C121.146 21.428 121.518 21.752 121.926 22.064C122.358 22.376 122.718 22.628 123.006 22.82L122.43 23.612C122.142 23.444 121.698 23.156 121.098 22.748C120.498 22.34 119.874 21.884 119.226 21.38C118.602 20.852 118.062 20.336 117.606 19.832C117.15 19.328 116.922 18.908 116.922 18.572C116.922 18.212 117.054 17.828 117.318 17.42C117.582 16.988 117.846 16.496 118.11 15.944C118.374 15.368 118.506 14.696 118.506 13.928V5.108C118.506 4.004 118.794 3.164 119.37 2.588H116.022C115.662 2.828 115.35 3.188 115.086 3.668C114.846 4.148 114.726 4.712 114.726 5.36V14.252C114.726 15.212 114.474 16.076 113.97 16.844C113.466 17.588 112.842 18.188 112.098 18.644C111.354 19.076 110.598 19.292 109.83 19.292C109.23 19.292 108.534 19.124 107.742 18.788C106.95 18.452 106.17 18.02 105.402 17.492C104.658 16.94 104.034 16.352 103.53 15.728C103.05 15.104 102.81 14.504 102.81 13.928C102.81 13.472 102.954 12.848 103.242 12.056C103.53 11.24 103.674 10.316 103.674 9.284V5.108C103.674 4.724 103.71 4.352 103.782 3.992L100.902 0.86L101.262 -0.00400209H120.846L123.222 2.588C122.862 2.828 122.55 3.188 122.286 3.668C122.046 4.148 121.926 4.712 121.926 5.36V15.692ZM111.306 5.108C111.306 4.004 111.594 3.164 112.17 2.588H108.39C108.03 2.828 107.718 3.188 107.454 3.668C107.214 4.148 107.094 4.712 107.094 5.36V11.156C107.094 11.876 107.01 12.536 106.842 13.136C106.674 13.712 106.506 14.228 106.338 14.684C106.17 15.116 106.086 15.488 106.086 15.8C106.086 16.04 106.218 16.244 106.482 16.412C106.746 16.556 107.082 16.628 107.49 16.628C108.066 16.628 108.642 16.472 109.218 16.16C109.818 15.848 110.31 15.392 110.694 14.792C111.102 14.168 111.306 13.4 111.306 12.488V5.108Z" fill="#FFCE0A"/>
</svg>
